# xmcd
#
# Track frame offsets:
#	150
#	22025
#	44490
#	61287
#	79967
#	96472
#	116367
#	132400
#	153607
#	171477
#
# Disc length: 2626 seconds
# Revision: 0
# Processed by: cddbd v1.5.2PL0 Copyright (c) Steve Scherf et al.
# Submitted via: dBpowerAMP V12.0
#
DISCID=8e0a400a
DTITLE=Beth Nielsen Chapman - Sand and Water
DYEAR=1997
DGENRE=Country
TTITLE0=The Color of Roses
TTITLE1=Beyond the Blue
TTITLE2=All the Time in the World
TTITLE3=Sand and Water
TTITLE4=Fair Enough
TTITLE5=Seven Shades of Blue
TTITLE6=Happy Girl
TTITLE7=No One Knows But You
TTITLE8=Heads Up for the Wrecking Ball
TTITLE9=Say Goodnight
EXTD=
EXTT0=
EXTT1=
EXTT2=
EXTT3=
EXTT4=
EXTT5=
EXTT6=
EXTT7=
EXTT8=
EXTT9=
PLAYORDER=
